<?xml version="1.0" encoding="UTF-8"?>
<svg id="Layer_1" data-name="Layer 1" xmlns="http://www.w3.org/2000/svg" viewBox="0 0 2759.97 402.78">
  <defs>
    <style>
      .cls-1 {
        fill: #13d259;
      }
    </style>
  </defs>
  <path class="cls-1" d="M105.33,7.01H6.86c-3.79,0-6.86,3.07-6.86,6.86v42.37c0,3.79,3.07,6.86,6.86,6.86h36.44c3.79,0,6.86,3.07,6.86,6.86v323.39c0,3.79,3.07,6.86,6.86,6.86h48.31c3.79,0,6.86-3.07,6.86-6.86V13.87c0-3.79-3.07-6.86-6.86-6.86Z"/>
  <path class="cls-1" d="M337.11,0c-51.43,0-87.65,17.53-108.69,52.59-21.04,35.06-31.55,83.7-31.55,145.9s10.52,112.11,31.55,147.52c21.04,35.42,57.26,53.13,108.69,53.13s87.65-17.71,108.69-53.13c21.04-35.41,31.55-84.59,31.55-147.52s-10.52-110.84-31.55-145.9C424.76,17.53,388.53,0,337.11,0ZM411.54,274.54c-3.6,20.5-11.24,37.04-22.92,49.62-11.69,12.59-28.86,18.88-51.51,18.88s-39.83-6.29-51.51-18.88c-11.69-12.58-19.33-29.13-22.92-49.62-3.6-20.5-5.39-45.85-5.39-76.05s1.89-53.75,5.66-73.89c3.78-20.13,11.41-36.59,22.92-49.35,11.5-12.76,28.59-19.15,51.24-19.15s39.73,6.39,51.24,19.15c11.5,12.77,19.15,29.22,22.92,49.35,3.78,20.14,5.66,44.77,5.66,73.89s-1.8,55.56-5.39,76.05Z"/>
  <path class="cls-1" d="M682.85,0c-51.43,0-87.65,17.53-108.69,52.59-21.04,35.06-31.55,83.7-31.55,145.9s10.52,112.11,31.55,147.52c21.04,35.42,57.26,53.13,108.69,53.13s87.65-17.71,108.69-53.13c21.04-35.41,31.55-84.59,31.55-147.52s-10.52-110.84-31.55-145.9C770.49,17.53,734.26,0,682.85,0ZM757.28,274.54c-3.6,20.5-11.24,37.04-22.92,49.62-11.69,12.59-28.86,18.88-51.51,18.88s-39.83-6.29-51.51-18.88c-11.69-12.58-19.33-29.13-22.92-49.62-3.6-20.5-5.39-45.85-5.39-76.05s1.89-53.75,5.66-73.89c3.78-20.13,11.41-36.59,22.92-49.35,11.5-12.76,28.59-19.15,51.24-19.15s39.73,6.39,51.24,19.15c11.5,12.77,19.15,29.22,22.92,49.35,3.78,20.14,5.66,44.77,5.66,73.89s-1.8,55.56-5.39,76.05Z"/>
  <path class="cls-1" d="M1254.55,212.77c-5.31-2.26-5.78-9.61-.7-12.34,11.87-6.36,21.82-14.56,29.85-24.59,11.5-14.38,17.26-32.36,17.26-53.94,0-17.98-4.68-34.25-14.02-48.81-9.35-14.56-23.19-26.16-41.53-34.79-18.34-8.63-40.28-12.95-65.8-12.95h-135.05c-3.79,0-6.86,3.07-6.86,6.86v36.44c0,3.79,3.07,6.86,6.86,6.86h129.65c20.13,0,35.87,4.77,47.2,14.29,11.33,9.53,16.99,22.75,16.99,39.64s-5.66,30.48-16.99,39.65c-11.33,9.17-27.06,13.75-47.2,13.75h-129.65c-3.79,0-6.86,3.07-6.86,6.86v36.44c0,3.79,3.07,6.86,6.86,6.86h134.51c20.85,0,37.57,5.4,50.16,16.18,12.58,10.79,18.88,25.35,18.88,43.69s-5.93,32.01-17.8,42.07c-11.87,10.07-28.23,15.1-49.08,15.1h-136.66c-3.79,0-6.86,3.07-6.86,6.86v36.44c0,3.79,3.07,6.86,6.86,6.86h142.06c24.81,0,46.56-4.4,65.26-13.22,18.69-8.81,32.99-20.85,42.88-36.14,9.89-15.28,14.83-32.45,14.83-51.51,0-22.29-7.01-42.25-21.04-59.87-9.83-12.35-21.17-21.26-34.01-26.72Z"/>
  <path class="cls-1" d="M1493.66,347.75c-15.33-3.17-28.02-9.59-38.05-19.27-14.93-14.38-22.38-35.78-22.38-64.19V32.21c0-3.79-3.07-6.86-6.86-6.86h-54.63v237.87c0,30.57,6.47,56.46,19.42,77.67,12.94,21.22,30.47,37.04,52.59,47.46,14.78,6.98,30.66,11.59,47.62,13.89,4.11.56,7.78-2.67,7.78-6.82v-40.98c0-3.25-2.29-6.04-5.48-6.7Z"/>
  <path class="cls-1" d="M1657.75,25.35h-47.77c-3.79,0-6.86,3.07-6.86,6.86v232.08c0,28.41-7.47,49.81-22.38,64.19-9.99,9.63-22.67,16.03-38.06,19.21-3.18.66-5.47,3.45-5.47,6.7v40.85c0,4.17,3.7,7.41,7.83,6.81,16.38-2.38,31.79-6.94,46.22-13.69,22.29-10.42,40.09-26.24,53.4-47.46,13.3-21.21,19.96-47.1,19.96-77.67V32.21c0-3.79-3.07-6.86-6.86-6.86Z"/>
  <path class="cls-1" d="M2028.2,49.89c-26.39-16.62-55.95-26.18-88.68-28.69-4-.31-7.44,2.84-7.44,6.85v40.54c0,3.47,2.6,6.4,6.06,6.8,15.98,1.81,30.46,6.33,43.41,13.61,16.18,9.1,29.04,22.63,38.59,40.58,1.18,2.22,3.45,3.65,5.96,3.65h59.46c4.96,0,8.33-5.12,6.29-9.64-14.16-31.32-35.38-55.88-63.64-73.7Z"/>
  <path class="cls-1" d="M2085.56,291.27h-59.46c-2.52,0-4.78,1.43-5.96,3.65-9.54,17.95-22.41,31.48-38.59,40.58-12.94,7.28-27.42,11.8-43.41,13.61-3.45.39-6.06,3.32-6.06,6.8v40.01c0,4.01,3.43,7.16,7.43,6.85,32.73-2.49,62.3-11.95,88.69-28.43,28.26-17.65,49.48-42.12,63.64-73.43,2.04-4.52-1.33-9.64-6.29-9.64Z"/>
  <path class="cls-1" d="M1885.97,23.54c-21.36,3.72-41.56,10.88-60.57,21.5-29.31,16.37-52.51,39.1-69.58,68.23-17.08,29.12-25.62,62.03-25.62,98.71s8.54,69.58,25.62,98.71c17.07,29.13,40.18,51.87,69.31,68.23,18.99,10.67,39.27,17.84,60.86,21.55,4.19.72,8.02-2.53,8.02-6.78v-40.67c0-3.15-2.14-5.92-5.2-6.65-11.93-2.82-23.09-7.25-33.47-13.31-19.42-11.33-34.61-27.41-45.58-48.27-10.97-20.85-16.45-45.12-16.45-72.81s5.48-51.96,16.45-72.82c10.96-20.85,26.16-36.85,45.58-48,10.38-5.96,21.53-10.31,33.45-13.09,3.07-.71,5.22-3.5,5.22-6.65V30.32c0-4.26-3.84-7.51-8.04-6.78Z"/>
  <path class="cls-1" d="M2602.1,22.1c-15.19,1.96-29.09,5.74-41.7,11.34-19.42,8.63-34.52,21.04-45.31,37.22-10.79,16.18-16.18,35.06-16.18,56.63,0,23.38,5.39,42.07,16.18,56.1,10.79,14.02,23.82,24.36,39.11,31.01,12.53,5.46,28.19,10.85,46.91,16.19,4.38,1.25,8.76-2.05,8.76-6.6v-44.05c0-2.89-1.83-5.47-4.55-6.46-2.35-.85-4.56-1.68-6.62-2.5-10.79-4.31-19.69-10.15-26.7-17.53-7.01-7.37-10.52-16.81-10.52-28.32,0-16.9,5.57-29.84,16.72-38.83,7.29-5.88,15.99-9.81,26.06-11.84,3.24-.65,5.61-3.43,5.61-6.74V28.92c0-4.14-3.66-7.35-7.76-6.82Z"/>
  <path class="cls-1" d="M2652.32,78.11c5.92,2.32,11.24,5.41,15.96,9.27,10.18,8.33,16.39,18.11,18.63,29.34.66,3.28,3.42,5.72,6.76,5.72h54.34c4.12,0,7.37-3.62,6.81-7.7-3.88-28-16.45-50.34-37.73-67-16.93-13.25-37.35-21.66-61.27-25.24-4.14-.62-7.88,2.62-7.88,6.8v42.44c0,2.83,1.75,5.34,4.38,6.38Z"/>
  <path class="cls-1" d="M2604.93,348.82c-8.69-2.59-16.08-6.67-22.15-12.25-9.95-9.15-16.09-20.53-18.4-34.13-.57-3.32-3.39-5.78-6.76-5.78h-52.71c-3.93,0-7.1,3.3-6.86,7.22,1.15,18.59,6.83,35.07,17.04,49.42,11.5,16.18,27.32,28.68,47.46,37.49,12.21,5.35,25.37,9.04,39.44,11.13,4.14.62,7.87-2.62,7.87-6.8v-39.72c0-3.04-2.02-5.7-4.93-6.56Z"/>
  <path class="cls-1" d="M2743.52,237.06c-10.97-14.2-24.27-24.72-39.91-31.55-12.61-5.5-28.25-11.02-46.84-16.53-4.39-1.3-8.82,2-8.82,6.58v43.55c0,2.91,1.86,5.51,4.6,6.47,2.44.86,4.72,1.7,6.83,2.53,10.96,4.32,20.13,10.43,27.51,18.34,7.37,7.91,11.06,18.16,11.06,30.75,0,16.18-5.93,29.4-17.8,39.64-7.2,6.22-16.16,10.51-26.81,12.94-3.14.72-5.39,3.47-5.39,6.69v38.99c0,4.15,3.67,7.39,7.79,6.81,16.27-2.26,30.98-6.8,44.1-13.66,19.59-10.25,34.52-23.82,44.77-40.72,10.25-16.9,15.37-34.88,15.37-53.94,0-23.73-5.49-42.69-16.45-56.9Z"/>
  <path class="cls-1" d="M2290.92,217.56c-2.28-2.58-2.3-6.44-.04-9.04l149.1-171.81c3.85-4.44.7-11.36-5.18-11.36h-58.96c-1.99,0-3.88.86-5.18,2.36l-222.27,256.23c-1.06,1.22-1.64,2.78-1.67,4.39,0,.03,0,.06,0,.1h0v110.19c0,1.66,1.34,3,3,3h55.26c1.66,0,3-1.34,3-3v-95.02l40.41-46.49,121.73,140.74c1.3,1.51,3.2,2.37,5.19,2.37h62c5.91,0,9.06-6.98,5.14-11.41l-151.52-171.26Z"/>
  <rect class="cls-1" x="2146.7" y="26.75" width="61.26" height="159.67" rx="3" ry="3"/>
</svg>